<mxfile host="app.diagrams.net" agent="Mozilla/5.0 (Windows NT 10.0; Win64; x64) AppleWebKit/537.36 (KHTML, like Gecko) Chrome/131.0.0.0 Safari/537.36" version="24.9.1">
  <diagram name="หน้า-1" id="BbdQtqGZCPie7t6cpoLX">
    <mxGraphModel dx="1050" dy="530" grid="1" gridSize="10" guides="1" tooltips="1" connect="1" arrows="1" fold="1" page="1" pageScale="1" pageWidth="827" pageHeight="1169" math="0" shadow="0">
      <root>
        <mxCell id="0" />
        <mxCell id="1" parent="0" />
        <mxCell id="H5qq54oZVmKo4PRoSd5V-3" value="" style="edgeStyle=orthogonalEdgeStyle;rounded=0;orthogonalLoop=1;jettySize=auto;html=1;" edge="1" parent="1" source="H5qq54oZVmKo4PRoSd5V-1" target="H5qq54oZVmKo4PRoSd5V-2">
          <mxGeometry relative="1" as="geometry" />
        </mxCell>
        <mxCell id="H5qq54oZVmKo4PRoSd5V-1" value="Start" style="ellipse;whiteSpace=wrap;html=1;" vertex="1" parent="1">
          <mxGeometry x="354" y="10" width="120" height="80" as="geometry" />
        </mxCell>
        <mxCell id="H5qq54oZVmKo4PRoSd5V-5" value="" style="edgeStyle=orthogonalEdgeStyle;rounded=0;orthogonalLoop=1;jettySize=auto;html=1;" edge="1" parent="1" source="H5qq54oZVmKo4PRoSd5V-2" target="H5qq54oZVmKo4PRoSd5V-4">
          <mxGeometry relative="1" as="geometry" />
        </mxCell>
        <mxCell id="H5qq54oZVmKo4PRoSd5V-2" value="Input X1" style="shape=parallelogram;perimeter=parallelogramPerimeter;whiteSpace=wrap;html=1;fixedSize=1;" vertex="1" parent="1">
          <mxGeometry x="354" y="180" width="120" height="60" as="geometry" />
        </mxCell>
        <mxCell id="H5qq54oZVmKo4PRoSd5V-9" value="" style="edgeStyle=orthogonalEdgeStyle;rounded=0;orthogonalLoop=1;jettySize=auto;html=1;" edge="1" parent="1" source="H5qq54oZVmKo4PRoSd5V-4" target="H5qq54oZVmKo4PRoSd5V-8">
          <mxGeometry relative="1" as="geometry" />
        </mxCell>
        <mxCell id="H5qq54oZVmKo4PRoSd5V-4" value="Input Y1" style="shape=parallelogram;perimeter=parallelogramPerimeter;whiteSpace=wrap;html=1;fixedSize=1;" vertex="1" parent="1">
          <mxGeometry x="354" y="320" width="120" height="60" as="geometry" />
        </mxCell>
        <mxCell id="H5qq54oZVmKo4PRoSd5V-11" value="" style="edgeStyle=orthogonalEdgeStyle;rounded=0;orthogonalLoop=1;jettySize=auto;html=1;" edge="1" parent="1" source="H5qq54oZVmKo4PRoSd5V-8" target="H5qq54oZVmKo4PRoSd5V-10">
          <mxGeometry relative="1" as="geometry" />
        </mxCell>
        <mxCell id="H5qq54oZVmKo4PRoSd5V-8" value="Input X2" style="shape=parallelogram;perimeter=parallelogramPerimeter;whiteSpace=wrap;html=1;fixedSize=1;" vertex="1" parent="1">
          <mxGeometry x="354" y="460" width="120" height="60" as="geometry" />
        </mxCell>
        <mxCell id="H5qq54oZVmKo4PRoSd5V-14" value="" style="edgeStyle=orthogonalEdgeStyle;rounded=0;orthogonalLoop=1;jettySize=auto;html=1;" edge="1" parent="1" source="H5qq54oZVmKo4PRoSd5V-10" target="H5qq54oZVmKo4PRoSd5V-13">
          <mxGeometry relative="1" as="geometry" />
        </mxCell>
        <mxCell id="H5qq54oZVmKo4PRoSd5V-10" value="Input Y2" style="shape=parallelogram;perimeter=parallelogramPerimeter;whiteSpace=wrap;html=1;fixedSize=1;" vertex="1" parent="1">
          <mxGeometry x="354" y="600" width="120" height="60" as="geometry" />
        </mxCell>
        <mxCell id="H5qq54oZVmKo4PRoSd5V-16" value="" style="edgeStyle=orthogonalEdgeStyle;rounded=0;orthogonalLoop=1;jettySize=auto;html=1;" edge="1" parent="1" source="H5qq54oZVmKo4PRoSd5V-13" target="H5qq54oZVmKo4PRoSd5V-15">
          <mxGeometry relative="1" as="geometry" />
        </mxCell>
        <mxCell id="H5qq54oZVmKo4PRoSd5V-13" value="(X1+X2) / 2,&lt;div&gt;&lt;span style=&quot;background-color: initial;&quot;&gt;(Y1+Y2) / 2&lt;/span&gt;&lt;/div&gt;" style="whiteSpace=wrap;html=1;" vertex="1" parent="1">
          <mxGeometry x="354" y="740" width="120" height="60" as="geometry" />
        </mxCell>
        <mxCell id="H5qq54oZVmKo4PRoSd5V-18" value="" style="edgeStyle=orthogonalEdgeStyle;rounded=0;orthogonalLoop=1;jettySize=auto;html=1;" edge="1" parent="1" source="H5qq54oZVmKo4PRoSd5V-15" target="H5qq54oZVmKo4PRoSd5V-17">
          <mxGeometry relative="1" as="geometry" />
        </mxCell>
        <mxCell id="H5qq54oZVmKo4PRoSd5V-15" value="Output ( X , Y )" style="shape=parallelogram;perimeter=parallelogramPerimeter;whiteSpace=wrap;html=1;fixedSize=1;" vertex="1" parent="1">
          <mxGeometry x="354" y="880" width="120" height="60" as="geometry" />
        </mxCell>
        <mxCell id="H5qq54oZVmKo4PRoSd5V-17" value="End" style="ellipse;whiteSpace=wrap;html=1;" vertex="1" parent="1">
          <mxGeometry x="354" y="1020" width="120" height="80" as="geometry" />
        </mxCell>
      </root>
    </mxGraphModel>
  </diagram>
</mxfile>
